# xmcd
#
# Track frame offsets:
# 150
# 16155
# 32684
# 47769
# 61893
# 78360
# 91093
# 101734
# 114184
# 123721
# 133124
# 144137
# 158756
# 172362
# 181716
# 197027
# 214129
# 226268
# 234618
# 247149
#
# Disc length: 3423 seconds
#
#
# Revision: 1
# Processed by: cddbd v1.5.2PL0 Copyright (c) Steve Scherf et al.
# Submitted via: FreeRIP 2.951 
#
DISCID=0c0d5d14
DTITLE=Various Artist - Mini Club Compilation - CD2
DYEAR=2005
DGENRE=Easy Listening
TTITLE0=Monelli - I Bambini Fanno 'OH'
TTITLE1=Monelli - Gioca Jouer
TTITLE2=Monelli - Le Tagliatelle di Nonna Pina
TTITLE3=Monelli - Il Gatto Puzzolone
TTITLE4=Monelli - Il Mio Nonno e' un DJ
TTITLE5=Babies Singers - Chi Chi Chi - Co Co Co
TTITLE6=Catoons Boys - Supercalifragilistic - Espiralidoso
TTITLE7=Monelli - Canzone Sciocca
TTITLE8=Monelli - Ehi! Oh! Cantando Lavoriam
TTITLE9=Monelli - La Marcia di Topolino
TTITLE10=Cartoon Group - Ufo Robot
TTITLE11=Cartoon Group - Dragon Ball
TTITLE12=Cartoon Group - Pokemon
TTITLE13=New Cover Baby - Hamtaro
TTITLE14=Cartoons Boys - Zorro
TTITLE15=Sailor - Calimero
TTITLE16=Mal - Furia
TTITLE17=Rita pavone - Viva la Pappa col Pomodoro
TTITLE18=Big Boys - Pippi Calzelunghe
TTITLE19=Monelli - Schnappi
EXTD=
EXTT0=
EXTT1=
EXTT2=
EXTT3=
EXTT4=
EXTT5=
EXTT6=
EXTT7=
EXTT8=
EXTT9=
EXTT10=
EXTT11=
EXTT12=
EXTT13=
EXTT14=
EXTT15=
EXTT16=
EXTT17=
EXTT18=
EXTT19=
PLAYORDER=
